<svg width="53" height="38" viewBox="0 0 53 38" fill="none" xmlns="http://www.w3.org/2000/svg">
<path d="M27.5977 36.5273C26.2617 36.5273 25.2598 36.2637 23.4844 34.6816L16.3652 28.7754C16.1016 28.7754 15.8379 28.793 15.5742 28.793C10.5996 28.793 6.39844 27.3516 3.83203 23.7656C1.61719 23.7656 0 22.4824 0 20.4434C0 18.6328 1.42383 17.4023 3.30469 17.4023C5.67773 10.8633 10.125 7.50586 15.9785 7.50586C21.6035 7.50586 25.7871 10.4414 31.2012 13.5703C33.3281 14.8008 34.752 15.627 36.1055 15.627C36.9844 15.627 37.6875 15.2227 38.4785 14.4668L28.3535 8.2793C26.1562 6.92578 23.3086 4.95703 23.3086 3.55078C23.3086 1.47656 27.123 0 29.6895 0C32.8184 0 36 1.63477 38.6191 5.09766L43.3301 11.373C48.6562 11.3555 52.6641 15.5039 52.6641 21.041C52.6641 25.6289 50.4844 26.6836 45.6328 26.6836C43.2949 26.6836 41.0449 25.8223 39.0762 24.4863C37.3008 25.2598 36.0879 26.0859 35.0156 26.877C34.0137 26.7363 33.0645 26.666 32.0273 26.666C30.7266 26.666 29.4434 26.7891 28.2656 27.0352L27.0527 24.0996C24.7324 18.4043 20.9355 15.5742 15.7852 15.5742C14.1855 15.5742 12.7266 15.8379 12.7266 16.9277C12.7266 17.5957 13.1836 17.8945 13.8691 17.8945H15.9434C20.1973 17.8945 23.2031 20.6016 25.0664 24.75L26.9648 29.0742C28.4414 28.7051 29.6016 28.459 32.2031 28.459C37.5117 28.459 40.8691 30.5332 40.8691 33.627C40.8691 35.4551 39.498 36.5273 36.8965 36.5273C35.1738 36.5273 34.541 35.9473 32.2207 35.9473C29.918 35.9473 28.8281 36.5273 27.5977 36.5273ZM45.2285 20.1973C46.0371 20.1973 46.6875 19.4766 46.6875 18.6855C46.6875 17.8945 46.0547 17.2617 45.2461 17.2617C44.4551 17.2617 43.8047 17.9648 43.8047 18.7559C43.8047 19.5293 44.4375 20.1973 45.2285 20.1973ZM14.8887 37.916C11.1621 37.916 8.77148 36.3516 8.77148 33.9961C8.77148 32.4141 9.98438 31.3594 11.9531 31.3594C13.5 31.3594 14.8008 31.623 15.6797 31.623C16.0488 31.623 16.3477 31.5879 16.5938 31.5703L22.043 36.1055C20.3555 37.2656 18.2813 37.916 14.8887 37.916Z" fill="white"/>
</svg>
